{"title":"The Lazarus Effect(2013)Mpeg-4[DaScubaDude]","uid":15351364,"size":894594862,"categoryP":"video","categoryS":"movies","magnet":"?xt=urn:btih:99e0c449f8f311e13a502470ce9f71286bde4e71&amp;dn=The+Lazarus+Effect%282013%29Mpeg-4%5BDaScubaDude%5D+&amp;tr=udp%3A%2F%2Ftracker.leechers-paradise.org%3A6969&amp;tr=udp%3A%2F%2Fzer0day.ch%3A1337&amp;tr=udp%3A%2F%2Fopen.demonii.com%3A1337&amp;tr=udp%3A%2F%2Ftracker.coppersurfer.tk%3A6969&amp;tr=udp%3A%2F%2Fexodus.desync.com%3A6969","seeders":1,"leechers":0,"uploader":"dascuba","files":1,"time":1468938457,"description":"The Lazarus Effect (2015)\r\nPG-13 | 1h 23min | Horror, Sci-Fi, Thriller | 27 February 2015 (USA)\r\nA group of medical researchers discover a way to bring dead patients back to life.\r\nDirector: David Gelb\r\nWriters: Luke Dawson, Jeremy Slater\r\nStars: Olivia Wilde, Mark Duplass, Evan Peters |\r\n\r\nGeneral\r\nComplete name                            : TheLazarusEffectTHE_LAZARUS_EFFECT_Title5.mp4\r\nFormat                                   : MPEG-4\r\nFormat profile                           : Base Media\r\nCodec ID                                 : isom (isom/iso2/avc1/mp41)\r\nFile size                                : 853 MiB\r\nDuration                                 : 1h 23mn\r\nOverall bit rate                         : 1 434 Kbps\r\nMovie name                               : THE_LAZARUS_EFFECT\r\nGenre                                    : Science_Fiction\r\nWriting application                      : Lavf54.6.100\r\n\r\nVideo\r\nID                                       : 1\r\nFormat                                   : AVC\r\nFormat/Info                              : Advanced Video Codec\r\nFormat profile                           :   \r\nFormat settings, CABAC                   : No\r\nFormat settings, ReFrames                : 6 frames\r\nCodec ID                                 : avc1\r\nCodec ID/Info                            : Advanced Video Coding\r\nDuration                                 : 1h 23mn\r\nBit rate                                 : 1 196 Kbps\r\nWidth                                    : 720 pixels\r\nHeight                                   : 404 pixels\r\nDisplay aspect ratio                     : 16:9\r\nFrame rate mode                          : Constant\r\nFrame rate                               : 29.970 (30000/1001) fps\r\nColor space                              : YUV\r\nChroma subsampling                       : 4:2:0\r\nBit depth                                : 8 bits\r\nScan type                                : Progressive\r\nBits/(Pixel*Frame)                       : 0.137\r\nStream size                              : 711 MiB (83%)\r\n\r\nAudio\r\nID                                       : 2\r\nFormat                                   : AAC\r\nFormat/Info                              : Advanced Audio Codec\r\nFormat profile                           : LC\r\nCodec ID                                 : 40\r\nDuration                                 : 1h 23mn\r\nBit rate mode                            : Constant\r\nBit rate                                 : 232 Kbps\r\nChannel(s)                               : 2 channels\r\nChannel(s)_Original                      : 6 channels\r\nChannel positions                        : Front: L C R, Side: L R, LFE\r\nSampling rate                            : 44.1 KHz\r\nFrame rate                               : 43.066 fps (1024 spf)\r\nCompression mode                         : Lossy\r\nStream size                              : 138 MiB (16%)\r\nDefault                                  : Yes\r\nAlternate group                          : 1","torrent":{"xt":"urn:btih:99e0c449f8f311e13a502470ce9f71286bde4e71","amp;dn":"The+Lazarus+Effect%282013%29Mpeg-4%5BDaScubaDude%5D+","amp;tr":["udp%3A%2F%2Ftracker.leechers-paradise.org%3A6969","udp%3A%2F%2Fzer0day.ch%3A1337","udp%3A%2F%2Fopen.demonii.com%3A1337","udp%3A%2F%2Ftracker.coppersurfer.tk%3A6969","udp%3A%2F%2Fexodus.desync.com%3A6969"],"infoHash":"99e0c449f8f311e13a502470ce9f71286bde4e71","infoHashBuffer":{"type":"Buffer","data":[153,224,196,73,248,243,17,225,58,80,36,112,206,159,113,40,107,222,78,113]},"announce":[],"urlList":[]}}